<mxfile host="app.diagrams.net" modified="2023-08-30T16:40:01.224Z" agent="Mozilla/5.0 (Macintosh; Intel Mac OS X 10_15_7) AppleWebKit/537.36 (KHTML, like Gecko) Chrome/116.0.0.0 Safari/537.36" etag="TsWNIFgjrKyOWxtyMO7X" version="21.7.1" type="device">
  <diagram name="Page-1" id="68k1Crl8PRaFTyuXd94p">
    <mxGraphModel dx="844" dy="559" grid="1" gridSize="10" guides="1" tooltips="1" connect="1" arrows="1" fold="1" page="1" pageScale="1" pageWidth="827" pageHeight="1169" math="0" shadow="0">
      <root>
        <mxCell id="0" />
        <mxCell id="1" parent="0" />
        <mxCell id="aFuN1U5QxfmvdPkx5Zkb-24" style="edgeStyle=orthogonalEdgeStyle;rounded=0;orthogonalLoop=1;jettySize=auto;html=1;entryX=0.5;entryY=0;entryDx=0;entryDy=0;" edge="1" parent="1" source="aFuN1U5QxfmvdPkx5Zkb-1" target="aFuN1U5QxfmvdPkx5Zkb-2">
          <mxGeometry relative="1" as="geometry" />
        </mxCell>
        <mxCell id="aFuN1U5QxfmvdPkx5Zkb-1" value="Start" style="ellipse;whiteSpace=wrap;html=1;" vertex="1" parent="1">
          <mxGeometry x="387" y="40" width="54" height="40" as="geometry" />
        </mxCell>
        <mxCell id="aFuN1U5QxfmvdPkx5Zkb-23" style="edgeStyle=orthogonalEdgeStyle;rounded=0;orthogonalLoop=1;jettySize=auto;html=1;entryX=0.5;entryY=0;entryDx=0;entryDy=0;" edge="1" parent="1" source="aFuN1U5QxfmvdPkx5Zkb-2" target="aFuN1U5QxfmvdPkx5Zkb-3">
          <mxGeometry relative="1" as="geometry" />
        </mxCell>
        <mxCell id="aFuN1U5QxfmvdPkx5Zkb-2" value="Input&lt;br&gt;x1, y1" style="shape=parallelogram;perimeter=parallelogramPerimeter;whiteSpace=wrap;html=1;fixedSize=1;" vertex="1" parent="1">
          <mxGeometry x="354" y="120" width="120" height="60" as="geometry" />
        </mxCell>
        <mxCell id="aFuN1U5QxfmvdPkx5Zkb-22" style="edgeStyle=orthogonalEdgeStyle;rounded=0;orthogonalLoop=1;jettySize=auto;html=1;entryX=0.5;entryY=0;entryDx=0;entryDy=0;" edge="1" parent="1" source="aFuN1U5QxfmvdPkx5Zkb-3" target="aFuN1U5QxfmvdPkx5Zkb-4">
          <mxGeometry relative="1" as="geometry" />
        </mxCell>
        <mxCell id="aFuN1U5QxfmvdPkx5Zkb-3" value="Input&lt;br&gt;x2, y2" style="shape=parallelogram;perimeter=parallelogramPerimeter;whiteSpace=wrap;html=1;fixedSize=1;" vertex="1" parent="1">
          <mxGeometry x="354" y="220" width="120" height="60" as="geometry" />
        </mxCell>
        <mxCell id="aFuN1U5QxfmvdPkx5Zkb-21" style="edgeStyle=orthogonalEdgeStyle;rounded=0;orthogonalLoop=1;jettySize=auto;html=1;entryX=0.5;entryY=0;entryDx=0;entryDy=0;" edge="1" parent="1" source="aFuN1U5QxfmvdPkx5Zkb-4" target="aFuN1U5QxfmvdPkx5Zkb-5">
          <mxGeometry relative="1" as="geometry" />
        </mxCell>
        <mxCell id="aFuN1U5QxfmvdPkx5Zkb-4" value="Input&lt;br&gt;x3, y3" style="shape=parallelogram;perimeter=parallelogramPerimeter;whiteSpace=wrap;html=1;fixedSize=1;" vertex="1" parent="1">
          <mxGeometry x="354" y="320" width="120" height="60" as="geometry" />
        </mxCell>
        <mxCell id="aFuN1U5QxfmvdPkx5Zkb-20" style="edgeStyle=orthogonalEdgeStyle;rounded=0;orthogonalLoop=1;jettySize=auto;html=1;entryX=0.5;entryY=0;entryDx=0;entryDy=0;" edge="1" parent="1" source="aFuN1U5QxfmvdPkx5Zkb-5" target="aFuN1U5QxfmvdPkx5Zkb-6">
          <mxGeometry relative="1" as="geometry" />
        </mxCell>
        <mxCell id="aFuN1U5QxfmvdPkx5Zkb-5" value="Calculate&lt;br&gt;slope1" style="shape=process;whiteSpace=wrap;html=1;backgroundOutline=1;" vertex="1" parent="1">
          <mxGeometry x="354" y="420" width="120" height="60" as="geometry" />
        </mxCell>
        <mxCell id="aFuN1U5QxfmvdPkx5Zkb-19" style="edgeStyle=orthogonalEdgeStyle;rounded=0;orthogonalLoop=1;jettySize=auto;html=1;entryX=0.5;entryY=0;entryDx=0;entryDy=0;" edge="1" parent="1" source="aFuN1U5QxfmvdPkx5Zkb-6" target="aFuN1U5QxfmvdPkx5Zkb-7">
          <mxGeometry relative="1" as="geometry" />
        </mxCell>
        <mxCell id="aFuN1U5QxfmvdPkx5Zkb-6" value="Calculate&lt;br&gt;slope2" style="shape=process;whiteSpace=wrap;html=1;backgroundOutline=1;" vertex="1" parent="1">
          <mxGeometry x="354" y="524.5" width="120" height="60" as="geometry" />
        </mxCell>
        <mxCell id="aFuN1U5QxfmvdPkx5Zkb-18" style="edgeStyle=orthogonalEdgeStyle;rounded=0;orthogonalLoop=1;jettySize=auto;html=1;entryX=0.5;entryY=0;entryDx=0;entryDy=0;" edge="1" parent="1" source="aFuN1U5QxfmvdPkx5Zkb-7" target="aFuN1U5QxfmvdPkx5Zkb-8">
          <mxGeometry relative="1" as="geometry" />
        </mxCell>
        <mxCell id="aFuN1U5QxfmvdPkx5Zkb-7" value="Calculate&lt;br&gt;slope3" style="shape=process;whiteSpace=wrap;html=1;backgroundOutline=1;" vertex="1" parent="1">
          <mxGeometry x="354" y="630" width="120" height="60" as="geometry" />
        </mxCell>
        <mxCell id="aFuN1U5QxfmvdPkx5Zkb-11" style="edgeStyle=orthogonalEdgeStyle;rounded=0;orthogonalLoop=1;jettySize=auto;html=1;" edge="1" parent="1" source="aFuN1U5QxfmvdPkx5Zkb-8" target="aFuN1U5QxfmvdPkx5Zkb-9">
          <mxGeometry relative="1" as="geometry" />
        </mxCell>
        <mxCell id="aFuN1U5QxfmvdPkx5Zkb-13" style="edgeStyle=orthogonalEdgeStyle;rounded=0;orthogonalLoop=1;jettySize=auto;html=1;" edge="1" parent="1" source="aFuN1U5QxfmvdPkx5Zkb-8" target="aFuN1U5QxfmvdPkx5Zkb-10">
          <mxGeometry relative="1" as="geometry" />
        </mxCell>
        <mxCell id="aFuN1U5QxfmvdPkx5Zkb-8" value="If&lt;br&gt;slope1 = slope2&lt;br&gt;AND&lt;br&gt;slope2 = slope3" style="rhombus;whiteSpace=wrap;html=1;" vertex="1" parent="1">
          <mxGeometry x="329" y="730" width="170" height="160" as="geometry" />
        </mxCell>
        <mxCell id="aFuN1U5QxfmvdPkx5Zkb-16" style="edgeStyle=orthogonalEdgeStyle;rounded=0;orthogonalLoop=1;jettySize=auto;html=1;entryX=1;entryY=0.5;entryDx=0;entryDy=0;" edge="1" parent="1" source="aFuN1U5QxfmvdPkx5Zkb-9" target="aFuN1U5QxfmvdPkx5Zkb-15">
          <mxGeometry relative="1" as="geometry">
            <Array as="points">
              <mxPoint x="610" y="960" />
            </Array>
          </mxGeometry>
        </mxCell>
        <mxCell id="aFuN1U5QxfmvdPkx5Zkb-9" value="Output&lt;br&gt;Collinear" style="shape=parallelogram;perimeter=parallelogramPerimeter;whiteSpace=wrap;html=1;fixedSize=1;" vertex="1" parent="1">
          <mxGeometry x="560" y="780" width="120" height="60" as="geometry" />
        </mxCell>
        <mxCell id="aFuN1U5QxfmvdPkx5Zkb-17" style="edgeStyle=orthogonalEdgeStyle;rounded=0;orthogonalLoop=1;jettySize=auto;html=1;entryX=0;entryY=0.5;entryDx=0;entryDy=0;" edge="1" parent="1" target="aFuN1U5QxfmvdPkx5Zkb-15">
          <mxGeometry relative="1" as="geometry">
            <mxPoint x="199.99857142857135" y="840" as="sourcePoint" />
            <mxPoint x="376.97" y="960" as="targetPoint" />
            <Array as="points">
              <mxPoint x="200" y="960" />
            </Array>
          </mxGeometry>
        </mxCell>
        <mxCell id="aFuN1U5QxfmvdPkx5Zkb-10" value="Output&lt;br&gt;Non - Collinear" style="shape=parallelogram;perimeter=parallelogramPerimeter;whiteSpace=wrap;html=1;fixedSize=1;" vertex="1" parent="1">
          <mxGeometry x="150" y="780" width="120" height="60" as="geometry" />
        </mxCell>
        <mxCell id="aFuN1U5QxfmvdPkx5Zkb-12" value="Yes" style="text;html=1;align=center;verticalAlign=middle;resizable=0;points=[];autosize=1;strokeColor=none;fillColor=none;" vertex="1" parent="1">
          <mxGeometry x="510" y="788" width="40" height="30" as="geometry" />
        </mxCell>
        <mxCell id="aFuN1U5QxfmvdPkx5Zkb-14" value="No" style="text;html=1;align=center;verticalAlign=middle;resizable=0;points=[];autosize=1;strokeColor=none;fillColor=none;" vertex="1" parent="1">
          <mxGeometry x="280" y="788" width="40" height="30" as="geometry" />
        </mxCell>
        <mxCell id="aFuN1U5QxfmvdPkx5Zkb-15" value="Stop" style="ellipse;whiteSpace=wrap;html=1;" vertex="1" parent="1">
          <mxGeometry x="387" y="940" width="54" height="40" as="geometry" />
        </mxCell>
      </root>
    </mxGraphModel>
  </diagram>
</mxfile>
